<svg width="95" height="49" id="Layer_1" data-name="Layer 1" xmlns="http://www.w3.org/2000/svg" viewBox="0 0 95 49"><polygon points="26.29 0 46.41 0 58.31 13.46 37.41 13.46 35.01 10.94 14.56 10.94 26.29 0" fill="#033878" fill-rule="evenodd"/><polygon points="21.38 49 11.75 37.93 32.47 37.93 35.26 35.37 56.05 35.37 41.5 49 21.38 49" fill="#033878" fill-rule="evenodd"/><polygon points="0 24.5 11.98 13.39 32.44 13.39 20.04 24.5 29.99 35.43 9.57 35.43 0 24.5" fill="#033878" fill-rule="evenodd"/><path d="M86.07,25.64H78a1.58,1.58,0,0,1-1.52-1.56,1.81,1.81,0,0,1,.07-.52l.69-2a7.18,7.18,0,0,1,6.92-4.44H95l-.86,2.45H86.43c-2,0-3.76.72-4.29,2.26l0,.07-.11.27c-.12.36-.33,1.12-.33,1.12h9.67a1.6,1.6,0,0,1,1.53,1.56,1.89,1.89,0,0,1-.08.53L92,27.74a7.4,7.4,0,0,1-6.8,4.13H73.87l.91-2.59h8.39c2,0,3.38-.73,3.86-2l.17-.47.07-.21a6.24,6.24,0,0,0,.19-.92Z" fill="#033878" fill-rule="evenodd"/><path d="M51.33,21.62a7.19,7.19,0,0,1,6.93-4.45H69.17l-.86,2.45H60.53c-2,0-3.76.72-4.28,2.27L54.19,28a.9.9,0,0,0,0,.28,1,1,0,0,0,1,1h1.8c2,0,3.38-.74,3.85-2l.58-1.59h-3l.8-2.32h8.17l-1.54,4.42a7.42,7.42,0,0,1-6.81,4.12H51.08a2.35,2.35,0,0,1-2.37-2.31,2.1,2.1,0,0,1,.14-.83Z" fill="#033878" fill-rule="evenodd"/><path d="M32.36,31.9h-.23a1.7,1.7,0,0,1-1.7-1.61,1.61,1.61,0,0,1,.08-.54l.16-.46L34.9,17.17H51.17l-.85,2.45H40a1.21,1.21,0,0,0-1.15.76l-1,3h8.54l-.8,2.32H37l-.94,2.71c-.12.37-.08.92.78.92H47.49L46.6,31.9Z" fill="#033878" fill-rule="evenodd"/><path d="M69,31.9H68.7A1.71,1.71,0,0,1,67,30.29a1.61,1.61,0,0,1,.09-.54l.15-.46.15-.41,4.09-11.71h5.3L71.62,31.9Z" fill="#033878" fill-rule="evenodd"/></svg>