<svg width="553" height="336" viewBox="0 0 553 336" fill="none" xmlns="http://www.w3.org/2000/svg">
<g clip-path="url(#clip0_3136_29280)">
<path d="M159.847 42.2128C173.532 17.604 201.322 4.38725 229.047 9.3018L348.402 30.4581L468.685 56.4772C495.376 62.2509 515.755 83.8664 519.948 110.851L539.139 234.353L553.647 357.351C556.907 384.99 542.479 411.704 517.579 424.134L409.556 478.058L299.555 527.824C274.198 539.295 244.371 533.628 224.989 513.657L138.732 424.782L55.0398 331.956C36.7533 311.674 32.8464 282.224 45.2118 257.876L100.936 148.149L159.847 42.2128Z" fill="#F8B1B4"/>
<path d="M136.997 35.4422C150.475 11.2063 177.844 -1.81019 205.149 3.0299L334.99 26.0449L335.009 26.0483L465.691 54.3175C491.977 60.0037 512.047 81.2917 516.177 107.868L537.021 242.003L537.026 242.04L552.793 375.721C556.004 402.941 541.795 429.25 517.272 441.491L399.803 500.132L399.768 500.148L280.147 554.265C255.175 565.562 225.8 559.981 206.711 540.313L112.962 443.719L112.95 443.705L22.0395 342.873C4.03013 322.898 0.182399 293.895 12.3605 269.916L72.9111 150.686L136.997 35.4422Z" stroke="#F8B1B4" stroke-width="2"/>
</g>
<defs>
<clipPath id="clip0_3136_29280">
<rect width="553" height="336" fill="white"/>
</clipPath>
</defs>
</svg>
