<svg width="131" height="37" viewBox="0 0 131 37" fill="none" xmlns="http://www.w3.org/2000/svg">
<mask id="mask0_576_1693" style="mask-type:alpha" maskUnits="userSpaceOnUse" x="0" y="0" width="17" height="33">
<path d="M0 0H16.8095V32.2533H0V0Z" fill="white"/>
</mask>
<g mask="url(#mask0_576_1693)">
<path fill-rule="evenodd" clip-rule="evenodd" d="M6.40555 18.1799V26.9063C8.98488 27.0348 10.4895 25.1521 10.4895 22.4577C10.4895 19.9336 8.94183 18.0942 6.40555 18.1799ZM6.23388 32.2534H0V0H13.8002V5.98858H6.40555V13.2178H7.2655C12.4247 13.2178 16.8095 16.0836 16.8095 22.3292C16.8095 29.7721 12.0803 32.2534 6.23388 32.2534Z" fill="#0F780C"/>
</g>
<path fill-rule="evenodd" clip-rule="evenodd" d="M29.8606 19.2503C29.8606 17.8554 29.5633 15.32 27.6977 15.32C25.8736 15.32 25.4918 17.7713 25.4918 19.1234V19.7571H29.8606V19.2503ZM34.9074 23.4341H25.4494C25.4918 24.9978 25.4074 28.378 27.6977 28.378C29.2241 28.378 29.6063 27.1952 29.6063 25.9272H34.6956C34.1864 29.857 32.2778 32.9421 27.9096 32.9421C21.8445 32.9421 19.6816 27.5755 19.6816 22.293C19.6816 17.1793 21.5478 10.7559 27.7822 10.7559C31.7268 10.7559 35.3741 14.2636 35.0353 20.9828L34.9074 23.4341Z" fill="#0F780C"/>
<path fill-rule="evenodd" clip-rule="evenodd" d="M49.8178 15.7106H46.3258V32.3258H40.3939V15.7106H36.9023V10.7559H49.8178V15.7106Z" fill="#0F780C"/>
<path fill-rule="evenodd" clip-rule="evenodd" d="M62.0368 21.7434C62.0368 20.5601 61.9081 16.0383 59.8506 16.0383C57.8355 16.0383 57.7073 20.5183 57.7073 21.7434C57.7073 23.096 57.7926 27.4909 59.9359 27.4909C61.8657 27.4909 62.0368 22.8845 62.0368 21.7434ZM61.6081 30.1109H61.5228C60.7081 31.7169 59.4648 32.9421 57.5356 32.9421C52.6484 32.9421 51.6621 25.2511 51.6621 21.8281C51.6621 18.1516 52.3909 10.7559 57.4497 10.7559C59.4648 10.7559 60.8364 12.0662 61.5228 13.7986H61.6081V11.1785H67.6527V32.5199H61.6081V30.1109Z" fill="#0F780C"/>
<path fill-rule="evenodd" clip-rule="evenodd" d="M80.9573 15.7301H78.6137V18.9615C78.6137 22.8724 78.401 25.7637 77.1234 27.2517H80.9573V15.7301ZM83.5985 36.0235V32.2259H75.0789V36.0235H69.498V27.2517H70.3928C72.8207 25.7637 72.6079 23.9352 72.6079 20.2365V10.7559H86.9637V27.2517H89.1788V36.0235H83.5985Z" fill="#0F780C"/>
<path fill-rule="evenodd" clip-rule="evenodd" d="M90.4082 32.3258V10.7559H96.2652V18.1021L96.0501 21.7758H96.1363L100.271 10.7559H105.784V32.3258H99.9263V24.4668L100.142 21.2203H100.056L95.9212 32.3258H90.4082Z" fill="#0F780C"/>
<path fill-rule="evenodd" clip-rule="evenodd" d="M114.933 32.3258H108.859V10.7559H114.933V18.1454H118.162V10.7559H124.235V32.3258H118.162V23.1424H114.933V32.3258Z" fill="#0F780C"/>
<path fill-rule="evenodd" clip-rule="evenodd" d="M127.993 6.57068V7.99569H128.107C128.616 7.99569 128.699 7.82104 128.699 7.27909C128.699 6.62635 128.517 6.57068 128.054 6.57068H127.993ZM127.993 10.3845H127.591V6.18045H128.001C128.563 6.18045 129.117 6.22848 129.117 7.26326C129.117 7.78884 129.003 8.31442 128.365 8.34607L129.254 10.3845H128.806L127.993 8.48142V10.3845ZM128.236 5.63141C126.892 5.63141 125.867 6.84138 125.867 8.28222C125.867 9.78745 126.892 10.9494 128.236 10.9494C129.573 10.9494 130.598 9.78745 130.598 8.28222C130.598 6.84138 129.573 5.63141 128.236 5.63141ZM128.236 11.3718C126.71 11.3718 125.465 9.9943 125.465 8.28222C125.465 6.59469 126.71 5.20898 128.236 5.20898C129.763 5.20898 131 6.59469 131 8.28222C131 9.9943 129.763 11.3718 128.236 11.3718Z" fill="#0F780C"/>
</svg>
