<svg width="34" height="35" viewBox="0 0 34 35" fill="none" xmlns="http://www.w3.org/2000/svg">
<circle cx="17" cy="17.5" r="16" stroke="#30892B"/>
<path d="M14.3594 23.2894V11.7982C14.3594 10.9364 15.3766 10.4782 16.022 11.0492L22.7252 16.9802C23.1846 17.3867 23.1732 18.1072 22.701 18.4988L15.9978 24.0591C15.3461 24.5997 14.3594 24.1362 14.3594 23.2894Z" fill="#30892B"/>
<circle cx="29.2084" cy="27.7319" r="2.31" fill="#E73E63"/>
<path d="M28.252 29.1093C25.6596 31.6219 22.301 33.1947 18.7111 33.5772C15.1212 33.9596 11.5066 33.1297 8.44306 31.2196C5.37952 29.3096 3.0433 26.4293 1.80655 23.0375C0.569795 19.6458 0.503657 15.9377 1.61867 12.504C2.73368 9.07033 4.9657 6.10853 7.95917 4.09045C10.9526 2.07237 14.5354 1.11409 18.1366 1.36827" stroke="#E73E63"/>
</svg>
